<?xml version="1.0" encoding="UTF-8"?>
<svg width="475px" height="112px" viewBox="0 0 475 112" version="1.1" xmlns="http://www.w3.org/2000/svg" xmlns:xlink="http://www.w3.org/1999/xlink">
    <!-- Generator: Sketch 63.1 (92452) - https://sketch.com -->
    <title>Group 2 Copy 3</title>
    <desc>Created with Sketch.</desc>
    <g id="Logos" stroke="none" stroke-width="1" fill="none" fill-rule="evenodd">
        <g id="Hyperledger-Firefly-Guide" transform="translate(-836.000000, -416.000000)" fill="#FFFFFF" fill-rule="nonzero">
            <g id="Group-2-Copy-3" transform="translate(836.000000, 416.000000)">
                <g id="Group-2-Copy-2" transform="translate(0.500000, 1.000000)">
                    <path d="M106.217316,0.394407181 C108.286092,0.394407181 109.970847,2.03859745 110.03612,4.09151812 L110.038083,4.21517396 L110.037312,12.0044072 L115.067775,14.908807 C117.350546,16.2267656 118.787016,18.623911 118.883368,21.2449282 L118.888541,21.5265692 L118.888312,24.3034072 L181.861093,24.30359 C185.534364,24.30359 187.091522,28.9809733 184.151235,31.1827074 L141.290987,63.2771483 C140.172552,64.1146503 138.686155,64.2748469 137.414953,63.694888 L118.888312,55.2424072 L118.888541,91.8038031 C118.888541,94.4397202 117.530788,96.8823125 115.309096,98.2762649 L115.067775,98.4215653 L96.5380406,109.119712 C94.2581811,110.43599 91.4681728,110.483 89.1518741,109.260742 L88.896507,109.119712 L70.3667729,98.4215653 C68.0840017,97.1036067 66.6475317,94.7064613 66.5511791,92.0854441 L66.5460061,91.8038031 L66.5453119,55.4714072 L48.5216244,63.694888 C47.321045,64.242627 45.9285159,64.1301655 44.8353028,63.4104499 L44.6455899,63.2771483 L1.78534256,31.1827074 C-1.15494455,28.9809733 0.402213317,24.30359 4.07548456,24.30359 L4.07548456,24.30359 L66.5453119,24.3034072 L66.5460061,21.5265692 C66.5460061,18.8906521 67.9037599,16.4480598 70.1254512,15.0541074 L70.3667729,14.908807 L76.1603119,11.5634072 L76.1606177,4.21517396 C76.1606177,2.10502273 77.8712333,0.394407181 79.9813845,0.394407181 C82.0501602,0.394407181 83.7349147,2.03859745 83.8001882,4.09151812 L83.8021513,4.21517396 L83.8013119,7.15240718 L88.896507,4.21066004 C91.1763665,2.89438256 93.9663748,2.84737265 96.2826734,4.06963031 L96.5380406,4.21066004 L102.396312,7.59340718 L102.39655,4.21517396 C102.39655,2.10502273 104.107165,0.394407181 106.217316,0.394407181 Z M74.1873119,77.7944072 L74.1875397,91.8038031 L92.7172738,102.50195 L111.247008,91.8038031 L111.246312,77.8584072 L94.6824878,87.4217655 C93.542558,88.0799042 92.1475539,88.1034092 90.9894046,87.4922803 L90.861721,87.4217655 L74.1873119,77.7944072 Z M74.1873119,58.1814072 L74.1873119,68.9714072 L92.7717834,79.7006328 L111.246312,69.0344072 L111.246312,58.2444072 L94.6824878,67.808496 C93.542558,68.4666348 92.1475539,68.4901397 90.9894046,67.8790109 L90.861721,67.808496 L74.1873119,58.1814072 Z M92.9683119,43.4164072 L76.7293119,50.8254072 L92.7717834,60.0873634 L108.987312,50.7254072 L92.9683119,43.4164072 Z M88.896507,31.9451236 L15.5525585,31.9451236 L47.4116402,55.8014819 L88.896507,36.8749316 L88.896507,31.9451236 Z M170.384019,31.9451236 L97.0400702,31.9451236 L97.0400702,36.8749316 L138.524937,55.8014819 L170.384019,31.9451236 Z M92.7172738,10.8284222 L74.1875397,21.5265692 L74.1873119,24.3034072 L92.7172738,24.30359 C92.801911,24.30359 92.8859054,24.306342 92.9691725,24.3117614 C93.0513465,24.30632 93.1350062,24.30359 93.2193034,24.30359 L111.246312,24.3034072 L111.247008,21.5265692 L92.7172738,10.8284222 Z" id="Combined-Shape"></path>
                </g>
                <g id="hl_equalheight_besu-copy" transform="translate(195.997530, 0.000000)">
                    <g id="Group" transform="translate(0.116241, -0.000010)">
                        <path d="M238.739705,47.9092592 L253.447414,71.6092451 L268.612357,47.9092592 L277.528428,47.9092592 L257.105289,78.8487907 L257.105289,101.862925 L249.789538,101.862925 L249.789538,78.8487907 L229.366399,47.9092592 L238.739705,47.9092592 Z M212.730741,47.9092592 L212.730741,95.0044081 L237.497608,95.0044081 L237.497608,101.862925 L205.41499,101.862925 L205.41499,47.9092592 L212.730741,47.9092592 Z M195.028203,47.9092592 L195.028203,54.7677761 L168.432399,54.7677761 L168.432399,71.6854509 L193.199265,71.6854509 L193.199265,78.5439677 L168.432399,78.5439677 L168.432399,101.862925 L161.116648,101.862925 L161.116648,47.9092592 L195.028203,47.9092592 Z M148.824717,47.9092592 L148.824717,54.7677761 L121.314444,54.7677761 L121.314444,70.8471877 L146.919573,70.8471877 L146.919573,77.7057045 L121.314444,77.7057045 L121.314444,95.0044081 L150.19642,95.0044081 L150.19642,101.862925 L113.998693,101.862925 L113.998693,47.9092592 L148.824717,47.9092592 Z M85.8559675,47.9092592 L86.3963739,47.9131645 C89.6084143,47.9600279 92.2732932,48.4286615 94.3910107,49.3190655 C96.6263791,50.2589363 98.3918122,51.4528263 99.6873098,52.9007354 C100.982807,54.3486445 101.884575,55.974367 102.392614,57.7779029 C102.900652,59.5814388 103.154671,61.3214699 103.154671,62.9979962 C103.154671,64.7253264 102.849848,66.3891518 102.240202,67.9894724 C101.630556,69.589793 100.75419,71.0377021 99.6111041,72.3331997 C98.4680179,73.6286973 97.0709126,74.7209796 95.4197882,75.6100466 C93.7686638,76.4991136 91.927025,77.0452548 89.8948719,77.2484701 L89.8948719,77.2484701 L105.212226,101.862925 L96.067537,101.862925 L82.3505034,78.0867333 L74.196489,78.0867333 L74.196489,101.862925 L66.8807377,101.862925 L66.8807377,47.9092592 L85.8559675,47.9092592 Z M52.4550463,47.9092592 L52.4550463,101.862925 L45.139295,101.862925 L45.139295,47.9092592 L52.4550463,47.9092592 Z M34.7525079,47.9092592 L34.7525079,54.7677761 L8.15670381,54.7677761 L8.15670381,71.6854509 L32.9235701,71.6854509 L32.9235701,78.5439677 L8.15670381,78.5439677 L8.15670381,101.862925 L0.840952541,101.862925 L0.840952541,47.9092592 L34.7525079,47.9092592 Z M83.7984125,54.3105416 L74.196489,54.3105416 L74.196489,71.6854509 L83.7984125,71.6854509 C85.2209197,71.6854509 86.6307259,71.5711423 88.0278312,71.342525 C89.4249365,71.1139078 90.6696303,70.6947762 91.7619126,70.0851303 C92.8541949,69.4754844 93.7305609,68.5991183 94.3910107,67.4560322 C95.0514605,66.312946 95.3816853,64.8269341 95.3816853,62.9979962 C95.3816853,61.1690584 95.0514605,59.6830465 94.3910107,58.5399603 C93.7305609,57.3968742 92.8541949,56.5205081 91.7619126,55.9108622 C90.6696303,55.3012163 89.4249365,54.8820847 88.0278312,54.6534675 C86.6307259,54.4248502 85.2209197,54.3105416 83.7984125,54.3105416 L83.7984125,54.3105416 Z M218.322663,0.445897704 C220.440678,0.390160491 222.447217,0.668846556 224.230808,1.17048147 C226.014399,1.67211639 227.575041,2.5639118 228.968471,3.79013049 L228.968471,3.79013049 L224.843917,8.36058195 C224.007859,7.52452376 223.116064,6.91141442 222.112794,6.46551671 C221.109524,6.07535622 219.827568,5.85240737 218.322663,5.85240737 C217.096445,5.85240737 215.925963,6.07535622 214.922693,6.52125392 C213.919424,6.91141442 213.027628,7.52452376 212.303044,8.30484474 C211.578461,9.08516572 211.021089,9.97696113 210.630928,11.0359682 C210.240768,12.0949752 210.073556,13.2654567 210.073556,14.4916754 C210.073556,15.7736313 210.296505,16.8883755 210.686665,17.9473826 C211.076826,19.0063896 211.634198,19.8981851 212.358782,20.678506 C213.083365,21.458827 213.975161,22.0161991 214.978431,22.4620969 C215.981701,22.8522573 217.096445,23.0752062 218.378401,23.0752062 C219.660357,23.0752062 220.775101,22.9079946 221.722633,22.6293085 C222.670166,22.3506224 223.39475,22.0161991 223.952122,21.7375131 L223.952122,21.7375131 L223.952122,17.3900105 L219.158722,17.3900105 L219.158722,11.9277636 L229.637318,11.8720264 L229.58158,25.8620668 C227.853727,26.8095995 226.070136,27.478446 224.175071,27.8686065 C222.280006,28.258767 220.329203,28.4817159 218.378401,28.4817159 C216.260387,28.4817159 214.365321,28.2030298 212.581731,27.5341832 C210.853877,26.8653367 209.293235,25.9735413 208.011279,24.7473226 C206.729323,23.5768411 205.726053,22.0719364 205.00147,20.3440828 C204.276886,18.6162292 203.886725,16.6654267 203.886725,14.5474126 C203.886725,12.4293985 204.221149,10.4785961 204.945732,8.75074245 C205.670316,7.02288884 206.673586,5.51798409 207.955542,4.2917654 C209.237498,3.06554672 210.742402,2.1180141 212.525993,1.44916754 C214.309584,0.780320982 216.204649,0.445897704 218.322663,0.445897704 Z M23.7440528,1.00326983 L23.8555272,27.7013949 L18.0031198,27.7571321 L17.9473826,16.219529 L6.46551671,16.2752662 L6.52125392,27.8128693 L0.613109343,27.8686065 L0.501634917,1.11474426 L6.4097795,1.05900705 L6.46551671,11.0359682 L17.8916454,10.980231 L17.8359082,1.00326983 L23.7440528,1.00326983 Z M53.9536222,1.00326983 L43.9766611,16.3867406 L44.0881355,27.8128693 L38.1799909,27.8128693 L38.1242537,16.4424778 L27.9800809,1.11474426 L35.2816558,1.11474426 L41.0225888,11.0917054 L46.9864706,1.05900705 L53.9536222,1.00326983 Z M100.549932,1.00326983 L100.549932,6.4097795 L88.2877454,6.52125392 L88.2877454,11.4818659 L99.8810858,11.4261287 L99.936823,16.8883755 L88.3434827,16.9441128 L88.3434827,22.3506224 L101.330253,22.2948852 L101.330253,27.7571321 L82.4910753,27.8128693 L82.3238636,1.11474426 L100.549932,1.00326983 Z M115.766191,1.00326983 C117.103885,1.00326983 118.38584,1.11474426 119.612059,1.39343033 C120.838278,1.61637918 121.897285,2.06227688 122.844818,2.67538623 C123.79235,3.28849557 124.516934,4.12455376 125.074306,5.18356081 C125.631678,6.24256786 125.910364,7.52452376 125.910364,9.08516572 C125.910364,10.980231 125.464467,12.5966101 124.461197,13.9343033 C123.513664,15.2162592 122.064497,16.0523174 120.169431,16.4424778 L120.169431,16.4424778 L127.025109,27.7013949 L119.946482,27.7571321 L114.261287,17.0555872 L111.362952,17.0555872 L111.418689,27.7571321 L105.510544,27.8128693 L105.39907,1.05900705 Z M170.221449,1.00326983 L170.221449,6.4097795 L157.959262,6.46551671 L158.014999,11.4818659 L169.608339,11.4261287 L169.608339,16.8326383 L158.014999,16.8883755 L158.070736,22.3506224 L171.00177,22.2948852 L171.057507,27.7013949 L152.162592,27.8128693 L152.051117,1.05900705 L170.221449,1.00326983 Z M183.932803,1.00326983 C186.106554,1.00326983 188.113094,1.22621869 190.063896,1.67211639 C192.014699,2.1180141 193.686815,2.89833508 195.135983,3.95734213 C196.58515,5.07208639 197.755632,6.4097795 198.59169,8.1376331 C199.427748,9.86548671 199.873646,11.9277636 199.873646,14.380201 C199.929383,16.5539523 199.539223,18.4490175 198.703164,20.1211339 C197.867106,21.7932503 196.808099,23.1866806 195.414669,24.3014249 C194.021239,25.4161691 192.404859,26.2522273 190.565531,26.8653367 C188.781941,27.4227088 186.886875,27.7571321 184.880336,27.7571321 L184.880336,27.7571321 L175.237798,27.8128693 L175.070586,1.05900705 Z M67.9993999,0.947532622 C69.3928302,0.891795409 70.7305233,1.05900705 71.956742,1.2819559 C73.1829607,1.50490475 74.2419678,1.95080246 75.1895004,2.5639118 C76.137033,3.23275836 76.8616168,4.01307934 77.4189889,5.07208639 C77.976361,6.13109343 78.2550471,7.46878655 78.2550471,9.02942851 C78.2550471,10.5900705 78.0320982,11.9277636 77.5304633,12.9867706 C77.0288284,14.0457777 76.3599819,14.9375731 75.4681864,15.5506824 C74.576391,16.1637918 73.5731212,16.6096895 72.3469025,16.8883755 C71.1206838,17.1670616 69.7829907,17.3342733 68.3895604,17.3342733 L68.3895604,17.3342733 L64.097795,17.3342733 L64.1535322,27.7571321 L58.2453876,27.7571321 L58.078176,1.00326983 Z M136.890595,1.00326983 L137.00207,22.2948852 L147.926563,22.239148 L147.926563,27.7013949 L131.149662,27.7571321 L130.982451,1.05900705 L136.890595,1.00326983 Z M251.98794,0.334423278 L251.98794,5.79667016 L239.725753,5.85240737 L239.725753,10.8687565 L251.319094,10.8130193 L251.374831,16.219529 L239.78149,16.2752662 L239.78149,21.7375131 L252.768261,21.6817759 L252.768261,27.0882855 L233.929083,27.19976 L233.761871,0.445897704 L251.98794,0.334423278 Z M267.148462,0.334423278 C268.541892,0.334423278 269.823848,0.445897704 271.050067,0.724583769 C272.276286,0.947532622 273.335293,1.39343033 274.282825,2.00653967 C275.230358,2.61964901 275.954942,3.45570721 276.512314,4.51471426 C277.069686,5.5737213 277.348372,6.8556772 277.348372,8.41631917 C277.348372,10.3113844 276.846737,11.9277636 275.899205,13.2654567 C274.951672,14.5474126 273.502504,15.3834708 271.607439,15.7736313 L271.607439,15.7736313 L278.463116,27.0325483 L271.38449,27.0882855 L265.755032,16.4424778 L262.856697,16.4424778 L262.912434,27.1440227 L256.892815,27.1440227 L256.78134,0.390160491 Z M184.490175,6.4097795 L181.034468,6.4097795 L181.145942,22.2948852 L184.211489,22.2948852 C185.549182,22.2948852 186.831138,22.1834108 188.00162,21.8489875 C189.172101,21.5703014 190.175371,21.1244037 191.011429,20.4555572 C191.847487,19.7867106 192.516334,18.9506524 193.017969,17.8916454 C193.519604,16.8326383 193.742553,15.5506824 193.742553,14.0457777 C193.686815,12.7638218 193.463866,11.5933403 192.962232,10.6458077 C192.460597,9.64253785 191.79175,8.86221687 190.955692,8.24910753 C190.119634,7.63599819 189.116364,7.13436327 188.00162,6.8556772 C186.886875,6.57699114 185.716394,6.4097795 184.490175,6.4097795 L184.490175,6.4097795 Z M64.0420578,5.96388179 L64.097795,12.3179241 L68.0551371,12.3179241 C68.556772,12.3179241 69.0584069,12.2621869 69.5600419,12.1507124 C70.0616768,12.039238 70.5075745,11.8720264 70.897735,11.6490775 C71.2878955,11.3703915 71.6223187,11.0359682 71.8452676,10.6458077 C72.0682165,10.2556472 72.1796909,9.69827507 72.1796909,9.08516572 C72.1796909,8.41631917 72.0124792,7.85894704 71.678056,7.46878655 C71.3436327,7.07862606 70.9534722,6.74420278 70.4518373,6.52125392 C69.9502024,6.29830507 69.3928302,6.13109343 68.7797209,6.07535622 C68.1666115,6.01961901 67.6092394,6.01961901 67.0518673,6.01961901 L67.0518673,6.01961901 L64.0420578,5.96388179 Z M115.153082,6.01961901 L111.307214,6.01961901 L111.362952,12.0949752 L114.874396,12.1507124 C115.376031,12.1507124 115.933403,12.1507124 116.546512,12.0949752 C117.159622,12.039238 117.661257,11.9277636 118.162892,11.7605519 C118.608789,11.5933403 118.99895,11.258917 119.333373,10.8687565 C119.612059,10.4228588 119.779271,9.86548671 119.779271,9.14090294 C119.779271,8.47205638 119.612059,7.91468425 119.333373,7.52452376 C119.054687,7.07862606 118.720264,6.79993999 118.274366,6.57699114 C117.828468,6.35404229 117.326833,6.18683065 116.769461,6.13109343 C116.212089,6.07535622 115.710454,6.01961901 115.153082,6.01961901 L115.153082,6.01961901 Z M266.646827,5.35077245 L262.800959,5.40650966 L262.856697,11.4818659 L266.312404,11.4818659 C266.814039,11.4818659 267.371411,11.4818659 267.98452,11.4261287 C268.59763,11.4261287 269.099265,11.3146542 269.600899,11.0917054 C270.046797,10.9244938 270.436958,10.5900705 270.771381,10.19991 C271.050067,9.75401228 271.217279,9.19664015 271.217279,8.47205638 C271.217279,7.80320982 271.050067,7.24583769 270.771381,6.8556772 C270.492695,6.4097795 270.158272,6.13109343 269.712374,5.90814458 C269.322213,5.68519573 268.820578,5.51798409 268.263206,5.46224688 C267.705834,5.40650966 267.204199,5.35077245 266.646827,5.35077245 L266.646827,5.35077245 Z" id="Combined-Shape"></path>
                    </g>
                </g>
            </g>
        </g>
    </g>
</svg>