<?xml version="1.0" encoding="UTF-8"?>
<svg width="186px" height="110px" viewBox="0 0 186 110" version="1.1" xmlns="http://www.w3.org/2000/svg" xmlns:xlink="http://www.w3.org/1999/xlink">
    <!-- Generator: Sketch 63.1 (92452) - https://sketch.com -->
    <title>Group 2 Copy 2</title>
    <desc>Created with Sketch.</desc>
    <g id="Logos" stroke="none" stroke-width="1" fill="none" fill-rule="evenodd">
        <g id="Option-A" transform="translate(-476.000000, -678.000000)">
            <g id="Group-2" transform="translate(476.000000, 676.000000)">
                <g id="Group-2-Copy-2" transform="translate(0.000000, 1.729157)">
                    <polygon id="Path-3" fill="#FFEA00" points="70.3032458 75.5018649 70.3032458 93.3321098 92.7721044 106.577435 115.186958 93.3321098 115.186958 51.8392019 92.7721044 64.7804238 70.3032458 51.8392019"></polygon>
                    <path d="M111.246227,47.2468887 L118.888227,50.3608887 L118.888541,91.8038031 C118.888541,94.4397202 117.530788,96.8823125 115.309096,98.2762649 L115.067775,98.4215653 L96.5380406,109.119712 C94.1737418,110.484741 91.2608057,110.484741 88.896507,109.119712 L88.896507,109.119712 L70.3667729,98.4215653 C68.0024742,97.0565368 66.5460061,94.5338601 66.5460061,91.8038031 L66.5460061,91.8038031 L66.5452266,50.3978887 L74.1872266,47.5188887 L74.1875397,91.8038031 L92.7172738,102.50195 L111.247008,91.8038031 L111.246227,47.2468887 Z M88.896507,4.21066004 C91.2608057,2.84563154 94.1737418,2.84563154 96.5380406,4.21066004 L96.5380406,4.21066004 L115.067775,14.908807 C117.432073,16.2738355 118.888541,18.7965122 118.888541,21.5265692 L118.888541,21.5265692 L118.888227,29.7328887 L111.246227,29.5748887 L111.247008,21.5265692 L92.7172738,10.8284222 L74.1875397,21.5265692 L74.1872266,28.8108887 L66.5452266,28.6528887 L66.5460061,21.5265692 C66.5460061,18.8906521 67.9037599,16.4480598 70.1254512,15.0541074 L70.3667729,14.908807 Z" id="Combined-Shape" fill="#462DE0" fill-rule="nonzero"></path>
                    <path d="M113.276575,67.8627814 L117.097342,74.4805436 L94.6824878,87.4217655 C93.542558,88.0799042 92.1475539,88.1034092 90.9894046,87.4922803 L90.861721,87.4217655 L68.4468672,74.4805436 L72.267634,67.8627814 L92.7717834,79.7006328 L113.276575,67.8627814 Z" id="Path-2" fill="#462DE0" fill-rule="nonzero"></path>
                    <path d="M113.276575,48.249512 L117.097342,54.8672741 L94.6824878,67.808496 C93.542558,68.4666348 92.1475539,68.4901397 90.9894046,67.8790109 L90.861721,67.808496 L68.4468672,54.8672741 L72.267634,48.249512 L92.7717834,60.0873634 L113.276575,48.249512 Z" id="Path-2-Copy" fill="#462DE0" fill-rule="nonzero"></path>
                    <path d="M92.7172738,24.30359 L4.07548456,24.30359 C0.402213317,24.30359 -1.15494455,28.9809733 1.78534256,31.1827074 L44.6455899,63.2771483 C45.7640248,64.1146503 47.2504226,64.2748469 48.5216244,63.694888 L94.3031663,42.8080297 C95.6645374,42.1869329 96.5380406,40.8282991 96.5380406,39.3319394 L96.5380406,28.1243568 C96.5380406,26.0142056 94.827425,24.30359 92.7172738,24.30359 Z M88.896507,31.9451236 L88.896507,36.8749316 L47.4116402,55.8014819 L15.5525585,31.9451236 L88.896507,31.9451236 Z" id="Path-4" fill="#462DE0" fill-rule="nonzero"></path>
                    <path d="M181.868499,24.30359 L93.2267094,24.30359 C89.5534381,24.30359 87.9962802,28.9809733 90.9365673,31.1827074 L133.796815,63.2771483 C134.91525,64.1146503 136.401647,64.2748469 137.672849,63.694888 L183.454391,42.8080297 C184.815762,42.1869329 185.689265,40.8282991 185.689265,39.3319394 L185.689265,28.1243568 C185.689265,26.0142056 183.97865,24.30359 181.868499,24.30359 Z M178.047732,31.9451236 L178.047732,36.8749316 L136.562865,55.8014819 L104.703783,31.9451236 L178.047732,31.9451236 Z" id="Path-4-Copy" fill="#462DE0" fill-rule="nonzero" transform="translate(137.543901, 44.171591) scale(-1, 1) translate(-137.543901, -44.171591) "></path>
                    <path d="M79.9813845,0.394407181 C82.0501602,0.394407181 83.7349147,2.03859745 83.8001882,4.09151812 L83.8021513,4.21517396 L83.8021513,12.459213 C83.8021513,14.5693643 82.0915357,16.2799798 79.9813845,16.2799798 C77.9126088,16.2799798 76.2278543,14.6357896 76.1625809,12.5828689 L76.1606177,12.459213 L76.1606177,4.21517396 C76.1606177,2.10502273 77.8712333,0.394407181 79.9813845,0.394407181 Z" id="Line-Copy-3" fill="#462DE0" fill-rule="nonzero"></path>
                    <path d="M106.217316,0.394407181 C108.286092,0.394407181 109.970847,2.03859745 110.03612,4.09151812 L110.038083,4.21517396 L110.038083,12.459213 C110.038083,14.5693643 108.327468,16.2799798 106.217316,16.2799798 C104.148541,16.2799798 102.463786,14.6357896 102.398513,12.5828689 L102.39655,12.459213 L102.39655,4.21517396 C102.39655,2.10502273 104.107165,0.394407181 106.217316,0.394407181 Z" id="Line-Copy-4" fill="#462DE0" fill-rule="nonzero"></path>
                </g>
            </g>
        </g>
    </g>
</svg>