<?xml version="1.0" encoding="UTF-8"?>
<svg width="475px" height="112px" viewBox="0 0 475 112" version="1.1" xmlns="http://www.w3.org/2000/svg" xmlns:xlink="http://www.w3.org/1999/xlink">
    <!-- Generator: Sketch 63.1 (92452) - https://sketch.com -->
    <title>Group 2</title>
    <desc>Created with Sketch.</desc>
    <g id="Logos" stroke="none" stroke-width="1" fill="none" fill-rule="evenodd">
        <g id="Option-A" transform="translate(-476.000000, -676.000000)">
            <g id="Group-2" transform="translate(476.000000, 676.000000)">
                <g id="Group-2-Copy-2" transform="translate(0.000000, 1.729157)">
                    <polygon id="Path-3" fill="#FFEA00" points="70.3032458 75.5018649 70.3032458 93.3321098 92.7721044 106.577435 115.186958 93.3321098 115.186958 51.8392019 92.7721044 64.7804238 70.3032458 51.8392019"></polygon>
                    <path d="M111.246227,47.2468887 L118.888227,50.3608887 L118.888541,91.8038031 C118.888541,94.4397202 117.530788,96.8823125 115.309096,98.2762649 L115.067775,98.4215653 L96.5380406,109.119712 C94.1737418,110.484741 91.2608057,110.484741 88.896507,109.119712 L88.896507,109.119712 L70.3667729,98.4215653 C68.0024742,97.0565368 66.5460061,94.5338601 66.5460061,91.8038031 L66.5460061,91.8038031 L66.5452266,50.3978887 L74.1872266,47.5188887 L74.1875397,91.8038031 L92.7172738,102.50195 L111.247008,91.8038031 L111.246227,47.2468887 Z M88.896507,4.21066004 C91.2608057,2.84563154 94.1737418,2.84563154 96.5380406,4.21066004 L96.5380406,4.21066004 L115.067775,14.908807 C117.432073,16.2738355 118.888541,18.7965122 118.888541,21.5265692 L118.888541,21.5265692 L118.888227,29.7328887 L111.246227,29.5748887 L111.247008,21.5265692 L92.7172738,10.8284222 L74.1875397,21.5265692 L74.1872266,28.8108887 L66.5452266,28.6528887 L66.5460061,21.5265692 C66.5460061,18.8906521 67.9037599,16.4480598 70.1254512,15.0541074 L70.3667729,14.908807 Z" id="Combined-Shape" fill="#462DE0" fill-rule="nonzero"></path>
                    <path d="M113.276575,67.8627814 L117.097342,74.4805436 L94.6824878,87.4217655 C93.542558,88.0799042 92.1475539,88.1034092 90.9894046,87.4922803 L90.861721,87.4217655 L68.4468672,74.4805436 L72.267634,67.8627814 L92.7717834,79.7006328 L113.276575,67.8627814 Z" id="Path-2" fill="#462DE0" fill-rule="nonzero"></path>
                    <path d="M113.276575,48.249512 L117.097342,54.8672741 L94.6824878,67.808496 C93.542558,68.4666348 92.1475539,68.4901397 90.9894046,67.8790109 L90.861721,67.808496 L68.4468672,54.8672741 L72.267634,48.249512 L92.7717834,60.0873634 L113.276575,48.249512 Z" id="Path-2-Copy" fill="#462DE0" fill-rule="nonzero"></path>
                    <path d="M92.7172738,24.30359 L4.07548456,24.30359 C0.402213317,24.30359 -1.15494455,28.9809733 1.78534256,31.1827074 L44.6455899,63.2771483 C45.7640248,64.1146503 47.2504226,64.2748469 48.5216244,63.694888 L94.3031663,42.8080297 C95.6645374,42.1869329 96.5380406,40.8282991 96.5380406,39.3319394 L96.5380406,28.1243568 C96.5380406,26.0142056 94.827425,24.30359 92.7172738,24.30359 Z M88.896507,31.9451236 L88.896507,36.8749316 L47.4116402,55.8014819 L15.5525585,31.9451236 L88.896507,31.9451236 Z" id="Path-4" fill="#462DE0" fill-rule="nonzero"></path>
                    <path d="M181.868499,24.30359 L93.2267094,24.30359 C89.5534381,24.30359 87.9962802,28.9809733 90.9365673,31.1827074 L133.796815,63.2771483 C134.91525,64.1146503 136.401647,64.2748469 137.672849,63.694888 L183.454391,42.8080297 C184.815762,42.1869329 185.689265,40.8282991 185.689265,39.3319394 L185.689265,28.1243568 C185.689265,26.0142056 183.97865,24.30359 181.868499,24.30359 Z M178.047732,31.9451236 L178.047732,36.8749316 L136.562865,55.8014819 L104.703783,31.9451236 L178.047732,31.9451236 Z" id="Path-4-Copy" fill="#462DE0" fill-rule="nonzero" transform="translate(137.543901, 44.171591) scale(-1, 1) translate(-137.543901, -44.171591) "></path>
                    <path d="M79.9813845,0.394407181 C82.0501602,0.394407181 83.7349147,2.03859745 83.8001882,4.09151812 L83.8021513,4.21517396 L83.8021513,12.459213 C83.8021513,14.5693643 82.0915357,16.2799798 79.9813845,16.2799798 C77.9126088,16.2799798 76.2278543,14.6357896 76.1625809,12.5828689 L76.1606177,12.459213 L76.1606177,4.21517396 C76.1606177,2.10502273 77.8712333,0.394407181 79.9813845,0.394407181 Z" id="Line-Copy-3" fill="#462DE0" fill-rule="nonzero"></path>
                    <path d="M106.217316,0.394407181 C108.286092,0.394407181 109.970847,2.03859745 110.03612,4.09151812 L110.038083,4.21517396 L110.038083,12.459213 C110.038083,14.5693643 108.327468,16.2799798 106.217316,16.2799798 C104.148541,16.2799798 102.463786,14.6357896 102.398513,12.5828689 L102.39655,12.459213 L102.39655,4.21517396 C102.39655,2.10502273 104.107165,0.394407181 106.217316,0.394407181 Z" id="Line-Copy-4" fill="#462DE0" fill-rule="nonzero"></path>
                </g>
                <g id="hl_equalheight_besu-copy" transform="translate(195.997530, 0.000000)" fill-rule="nonzero">
                    <g id="Group" transform="translate(0.116241, -0.000010)" fill="#231F20">
                        <polygon id="Path" points="6.46551671 16.2752662 17.9473826 16.219529 18.0031198 27.7571321 23.8555272 27.7013949 23.7440528 1.00326983 17.8359082 1.00326983 17.8916454 10.980231 6.46551671 11.0359682 6.4097795 1.05900705 0.501634917 1.11474426 0.613109343 27.8686065 6.52125392 27.8128693"></polygon>
                        <polygon id="Path" points="38.1799909 27.8128693 44.0881355 27.8128693 43.9766611 16.3867406 53.9536222 1.00326983 46.9864706 1.05900705 41.0225888 11.0917054 35.2816558 1.11474426 27.9800809 1.11474426 38.1242537 16.4424778"></polygon>
                        <path d="M64.1535322,27.7571321 L64.097795,17.3342733 L68.3895604,17.3342733 C69.7829907,17.3342733 71.1206838,17.1670616 72.3469025,16.8883755 C73.5731212,16.6096895 74.576391,16.1637918 75.4681864,15.5506824 C76.3599819,14.9375731 77.0288284,14.0457777 77.5304633,12.9867706 C78.0320982,11.9277636 78.2550471,10.5900705 78.2550471,9.02942851 C78.2550471,7.46878655 77.976361,6.13109343 77.4189889,5.07208639 C76.8616168,4.01307934 76.137033,3.23275836 75.1895004,2.5639118 C74.2419678,1.95080246 73.1829607,1.50490475 71.956742,1.2819559 C70.7305233,1.05900705 69.3928302,0.891795409 67.9993999,0.947532622 L58.078176,1.00326983 L58.2453876,27.7571321 L64.1535322,27.7571321 Z M67.0518673,6.01961901 C67.6092394,6.01961901 68.1666115,6.01961901 68.7797209,6.07535622 C69.3928302,6.13109343 69.9502024,6.29830507 70.4518373,6.52125392 C70.9534722,6.74420278 71.3436327,7.07862606 71.678056,7.46878655 C72.0124792,7.85894704 72.1796909,8.41631917 72.1796909,9.08516572 C72.1796909,9.69827507 72.0682165,10.2556472 71.8452676,10.6458077 C71.6223187,11.0359682 71.2878955,11.3703915 70.897735,11.6490775 C70.5075745,11.8720264 70.0616768,12.039238 69.5600419,12.1507124 C69.0584069,12.2621869 68.556772,12.3179241 68.0551371,12.3179241 L64.097795,12.3179241 L64.0420578,5.96388179 L67.0518673,6.01961901 Z" id="Shape"></path>
                        <polygon id="Path" points="101.330253 27.7571321 101.330253 22.2948852 88.3434827 22.3506224 88.3434827 16.9441128 99.936823 16.8883755 99.8810858 11.4261287 88.2877454 11.4818659 88.2877454 6.52125392 100.549932 6.4097795 100.549932 1.00326983 82.3238636 1.11474426 82.4910753 27.8128693"></polygon>
                        <path d="M119.946482,27.7571321 L127.025109,27.7013949 L120.169431,16.4424778 C122.064497,16.0523174 123.513664,15.2162592 124.461197,13.9343033 C125.464467,12.5966101 125.910364,10.980231 125.910364,9.08516572 C125.910364,7.52452376 125.631678,6.24256786 125.074306,5.18356081 C124.516934,4.12455376 123.79235,3.28849557 122.844818,2.67538623 C121.897285,2.06227688 120.838278,1.61637918 119.612059,1.39343033 C118.38584,1.11474426 117.103885,1.00326983 115.766191,1.00326983 L105.39907,1.05900705 L105.510544,27.8128693 L111.418689,27.7571321 L111.362952,17.0555872 L114.261287,17.0555872 L119.946482,27.7571321 Z M111.362952,12.0949752 L111.307214,6.01961901 L115.153082,6.01961901 C115.710454,6.01961901 116.212089,6.07535622 116.769461,6.13109343 C117.326833,6.18683065 117.828468,6.35404229 118.274366,6.57699114 C118.720264,6.79993999 119.054687,7.07862606 119.333373,7.52452376 C119.612059,7.91468425 119.779271,8.47205638 119.779271,9.14090294 C119.779271,9.86548671 119.612059,10.4228588 119.333373,10.8687565 C118.99895,11.258917 118.608789,11.5933403 118.162892,11.7605519 C117.661257,11.9277636 117.159622,12.039238 116.546512,12.0949752 C115.933403,12.1507124 115.376031,12.1507124 114.874396,12.1507124 L111.362952,12.0949752 Z" id="Shape"></path>
                        <polygon id="Path" points="147.926563 27.7013949 147.926563 22.239148 137.00207 22.2948852 136.890595 1.00326983 130.982451 1.05900705 131.149662 27.7571321"></polygon>
                        <polygon id="Path" points="171.057507 27.7013949 171.00177 22.2948852 158.070736 22.3506224 158.014999 16.8883755 169.608339 16.8326383 169.608339 11.4261287 158.014999 11.4818659 157.959262 6.46551671 170.221449 6.4097795 170.221449 1.00326983 152.051117 1.05900705 152.162592 27.8128693"></polygon>
                        <path d="M195.414669,24.3014249 C196.808099,23.1866806 197.867106,21.7932503 198.703164,20.1211339 C199.539223,18.4490175 199.929383,16.5539523 199.873646,14.380201 C199.873646,11.9277636 199.427748,9.86548671 198.59169,8.1376331 C197.755632,6.4097795 196.58515,5.07208639 195.135983,3.95734213 C193.686815,2.89833508 192.014699,2.1180141 190.063896,1.67211639 C188.113094,1.22621869 186.106554,1.00326983 183.932803,1.00326983 L175.070586,1.05900705 L175.237798,27.8128693 L184.880336,27.7571321 C186.886875,27.7571321 188.781941,27.4227088 190.565531,26.8653367 C192.404859,26.2522273 194.021239,25.4161691 195.414669,24.3014249 Z M184.211489,22.2948852 L181.145942,22.2948852 L181.034468,6.4097795 L184.490175,6.4097795 C185.716394,6.4097795 186.886875,6.57699114 188.00162,6.8556772 C189.116364,7.13436327 190.119634,7.63599819 190.955692,8.24910753 C191.79175,8.86221687 192.460597,9.64253785 192.962232,10.6458077 C193.463866,11.5933403 193.686815,12.7638218 193.742553,14.0457777 C193.742553,15.5506824 193.519604,16.8326383 193.017969,17.8916454 C192.516334,18.9506524 191.847487,19.7867106 191.011429,20.4555572 C190.175371,21.1244037 189.172101,21.5703014 188.00162,21.8489875 C186.831138,22.1834108 185.549182,22.2948852 184.211489,22.2948852 Z" id="Shape"></path>
                        <path d="M219.158722,11.9277636 L219.158722,17.3900105 L223.952122,17.3900105 L223.952122,21.7375131 C223.39475,22.0161991 222.670166,22.3506224 221.722633,22.6293085 C220.775101,22.9079946 219.660357,23.0752062 218.378401,23.0752062 C217.096445,23.0752062 215.981701,22.8522573 214.978431,22.4620969 C213.975161,22.0161991 213.083365,21.458827 212.358782,20.678506 C211.634198,19.8981851 211.076826,19.0063896 210.686665,17.9473826 C210.296505,16.8883755 210.073556,15.7736313 210.073556,14.4916754 C210.073556,13.2654567 210.240768,12.0949752 210.630928,11.0359682 C211.021089,9.97696113 211.578461,9.08516572 212.303044,8.30484474 C213.027628,7.52452376 213.919424,6.91141442 214.922693,6.52125392 C215.925963,6.07535622 217.096445,5.85240737 218.322663,5.85240737 C219.827568,5.85240737 221.109524,6.07535622 222.112794,6.46551671 C223.116064,6.91141442 224.007859,7.52452376 224.843917,8.36058195 L228.968471,3.79013049 C227.575041,2.5639118 226.014399,1.67211639 224.230808,1.17048147 C222.447217,0.668846556 220.440678,0.390160491 218.322663,0.445897704 C216.204649,0.445897704 214.309584,0.780320982 212.525993,1.44916754 C210.742402,2.1180141 209.237498,3.06554672 207.955542,4.2917654 C206.673586,5.51798409 205.670316,7.02288884 204.945732,8.75074245 C204.221149,10.4785961 203.886725,12.4293985 203.886725,14.5474126 C203.886725,16.6654267 204.276886,18.6162292 205.00147,20.3440828 C205.726053,22.0719364 206.729323,23.5768411 208.011279,24.7473226 C209.293235,25.9735413 210.853877,26.8653367 212.581731,27.5341832 C214.365321,28.2030298 216.260387,28.4817159 218.378401,28.4817159 C220.329203,28.4817159 222.280006,28.258767 224.175071,27.8686065 C226.070136,27.478446 227.853727,26.8095995 229.58158,25.8620668 L229.637318,11.8720264 L219.158722,11.9277636 Z" id="Path"></path>
                        <polygon id="Path" points="252.768261 27.0882855 252.768261 21.6817759 239.78149 21.7375131 239.78149 16.2752662 251.374831 16.219529 251.319094 10.8130193 239.725753 10.8687565 239.725753 5.85240737 251.98794 5.79667016 251.98794 0.334423278 233.761871 0.445897704 233.929083 27.19976"></polygon>
                        <path d="M262.912434,27.1440227 L262.856697,16.4424778 L265.755032,16.4424778 L271.38449,27.0882855 L278.463116,27.0325483 L271.607439,15.7736313 C273.502504,15.3834708 274.951672,14.5474126 275.899205,13.2654567 C276.846737,11.9277636 277.348372,10.3113844 277.348372,8.41631917 C277.348372,6.8556772 277.069686,5.5737213 276.512314,4.51471426 C275.954942,3.45570721 275.230358,2.61964901 274.282825,2.00653967 C273.335293,1.39343033 272.276286,0.947532622 271.050067,0.724583769 C269.823848,0.445897704 268.541892,0.334423278 267.148462,0.334423278 L256.78134,0.390160491 L256.892815,27.1440227 L262.912434,27.1440227 Z M266.646827,5.35077245 C267.204199,5.35077245 267.705834,5.40650966 268.263206,5.46224688 C268.820578,5.51798409 269.322213,5.68519573 269.712374,5.90814458 C270.158272,6.13109343 270.492695,6.4097795 270.771381,6.8556772 C271.050067,7.24583769 271.217279,7.80320982 271.217279,8.47205638 C271.217279,9.19664015 271.050067,9.75401228 270.771381,10.19991 C270.436958,10.5900705 270.046797,10.9244938 269.600899,11.0917054 C269.099265,11.3146542 268.59763,11.4261287 267.98452,11.4261287 C267.371411,11.4818659 266.814039,11.4818659 266.312404,11.4818659 L262.856697,11.4818659 L262.800959,5.40650966 L266.646827,5.35077245 Z" id="Shape"></path>
                    </g>
                    <path d="M8.27294476,101.862915 L8.27294476,78.5439578 L33.039811,78.5439578 L33.039811,71.685441 L8.27294476,71.685441 L8.27294476,54.7677662 L34.8687489,54.7677662 L34.8687489,47.9092494 L0.957193483,47.9092494 L0.957193483,101.862915 L8.27294476,101.862915 Z M52.5712872,101.862915 L52.5712872,47.9092494 L45.2555359,47.9092494 L45.2555359,101.862915 L52.5712872,101.862915 Z M74.3127299,101.862915 L74.3127299,78.0867234 L82.4667443,78.0867234 L96.183778,101.862915 L105.328467,101.862915 L90.0111128,77.2484602 C92.043266,77.0452449 93.8849047,76.4991037 95.5360292,75.6100368 C97.1871536,74.7209698 98.5842589,73.6286874 99.727345,72.3331898 C100.870431,71.0376922 101.746797,69.5897831 102.356443,67.9894625 C102.966089,66.3891419 103.270912,64.7253165 103.270912,62.9979864 C103.270912,61.32146 103.016893,59.5814289 102.508855,57.777893 C102.000816,55.9743571 101.099048,54.3486346 99.8035507,52.9007255 C98.5080531,51.4528164 96.7426201,50.2589264 94.5072516,49.3190556 C92.2718832,48.3791848 89.4268688,47.9092494 85.9722085,47.9092494 L85.9722085,47.9092494 L66.9969786,47.9092494 L66.9969786,101.862915 L74.3127299,101.862915 Z M83.9146534,71.685441 L74.3127299,71.685441 L74.3127299,54.3105317 L83.9146534,54.3105317 C85.3371606,54.3105317 86.7469669,54.4248404 88.1440721,54.6534576 C89.5411774,54.8820748 90.7858712,55.3012064 91.8781535,55.9108523 C92.9704358,56.5204983 93.8468019,57.3968643 94.5072516,58.5399504 C95.1677014,59.6830366 95.4979263,61.1690486 95.4979263,62.9979864 C95.4979263,64.8269242 95.1677014,66.3129362 94.5072516,67.4560223 C93.8468019,68.5991084 92.9704358,69.4754745 91.8781535,70.0851204 C90.7858712,70.6947664 89.5411774,71.1138979 88.1440721,71.3425152 C86.7469669,71.5711324 85.3371606,71.685441 83.9146534,71.685441 L83.9146534,71.685441 Z M150.312661,101.862915 L150.312661,95.0043982 L121.430685,95.0043982 L121.430685,77.7056947 L147.035814,77.7056947 L147.035814,70.8471779 L121.430685,70.8471779 L121.430685,54.7677662 L148.940958,54.7677662 L148.940958,47.9092494 L114.114934,47.9092494 L114.114934,101.862915 L150.312661,101.862915 Z M168.54864,101.862915 L168.54864,78.5439578 L193.315506,78.5439578 L193.315506,71.685441 L168.54864,71.685441 L168.54864,54.7677662 L195.144444,54.7677662 L195.144444,47.9092494 L161.232888,47.9092494 L161.232888,101.862915 L168.54864,101.862915 Z M237.613848,101.862915 L237.613848,95.0043982 L212.846982,95.0043982 L212.846982,47.9092494 L205.531231,47.9092494 L205.531231,101.862915 L237.613848,101.862915 Z M257.22153,101.862915 L257.22153,78.8487808 L277.644669,47.9092494 L268.728597,47.9092494 L253.563655,71.6092353 L238.855946,47.9092494 L229.48264,47.9092494 L249.905779,78.8487808 L249.905779,101.862915 L257.22153,101.862915 Z" id="FIREFLY" fill="#462DE0"></path>
                </g>
            </g>
        </g>
    </g>
</svg>