<?xml version="1.0" encoding="UTF-8"?>
<svg width="530px" height="101px" viewBox="0 0 530 101" version="1.1" xmlns="http://www.w3.org/2000/svg" xmlns:xlink="http://www.w3.org/1999/xlink">
    <!-- Generator: Sketch 63.1 (92452) - https://sketch.com -->
    <title>FireFly-Logo-White</title>
    <desc>Created with Sketch.</desc>
    <g id="Page-1" stroke="none" stroke-width="1" fill="none" fill-rule="evenodd">
        <g id="FireFly-Logo-White" fill="#FFFFFF" fill-rule="nonzero">
            <path d="M96.9233012,0.025252552 C98.811059,0.025252552 100.348398,1.52557617 100.40796,3.39886629 L100.409751,3.51170224 L100.409672,10.6192526 L104.999344,13.2696424 C107.079716,14.4707456 108.389807,16.6540963 108.480731,19.0422022 L108.485794,19.3083504 L108.485672,21.8422526 L165.948247,21.8423819 C169.300107,21.8423819 170.721014,26.1104941 168.038002,28.1195765 L128.928026,57.4057539 C127.907454,58.1699744 126.551116,58.3161538 125.391144,57.7869413 L108.484672,50.0732526 L108.485794,83.4363263 C108.485794,85.8385327 107.250002,88.06478 105.227304,89.3375757 L104.999344,89.4750343 L88.090962,99.2370934 C86.0165172,100.434775 83.4792103,100.480839 81.3691608,99.3752874 L81.1180626,99.2370934 L64.2096803,89.4750343 C62.1293085,88.2739311 60.8192177,86.0905804 60.7282933,83.7024745 L60.7232306,83.4363263 L60.7216721,50.2832526 L44.2759823,57.7869413 C43.1842443,58.2850236 41.9185623,58.184835 40.9225788,57.534189 L40.7391008,57.4057539 L1.62912509,28.1195765 C-1.00510486,26.1470229 0.31670699,21.9968392 3.53797899,21.8465755 L3.71887966,21.8423819 L60.7226721,21.8422526 L60.7232306,19.3083504 C60.7232306,16.906144 61.9590224,14.6798967 63.9817205,13.407101 L64.2096803,13.2696424 L69.4956721,10.2172526 L69.4965637,3.51170224 C69.4965637,1.58618924 71.0575004,0.025252552 72.9830134,0.025252552 C74.8707712,0.025252552 76.4081097,1.52557617 76.4676717,3.39886629 L76.4694631,3.51170224 L76.4686721,6.19125255 L81.1180626,3.50758329 C83.1925074,2.30990203 85.7298143,2.26383737 87.8398639,3.3693893 L88.090962,3.50758329 L93.4366721,6.59425255 L93.4368515,3.51170224 C93.4368515,1.58618924 94.9977882,0.025252552 96.9233012,0.025252552 Z M67.6956721,70.6522526 L67.69613,83.4363263 L84.6045123,93.1983854 L101.512895,83.4363263 L101.512895,70.7102526 L86.3977701,79.437717 C85.3575842,80.0382686 84.0846429,80.0597169 83.0278317,79.5020618 L82.9113204,79.437717 L67.6956721,70.6522526 Z M227.712818,12.9063955 L227.712818,21.4405727 L194.619176,21.4405727 L194.619176,42.4915431 L225.437038,42.4915431 L225.437038,51.0257203 L194.619176,51.0257203 L194.619176,80.0419227 L185.516053,80.0419227 L185.516053,12.9063955 L227.712818,12.9063955 Z M249.740408,12.9063955 L249.740408,80.0419227 L240.637286,80.0419227 L240.637286,12.9063955 L249.740408,12.9063955 Z M291.301782,12.9063955 L291.883266,12.91002 C295.920739,12.9607627 299.267014,13.5443037 301.922092,14.6606431 C304.703601,15.8301414 306.900362,17.3157204 308.512373,19.11738 C310.124384,20.9190397 311.24647,22.9419557 311.878632,25.1861283 C312.510793,27.4303008 312.826873,29.5954531 312.826873,31.6815853 C312.826873,33.8309337 312.447577,35.9012618 311.688983,37.8925698 C310.93039,39.8838778 309.839911,41.6855375 308.417549,43.2975487 C306.995186,44.90956 305.256742,46.2687067 303.202218,47.3749889 C301.147694,48.4812711 298.856109,49.1608445 296.327464,49.413709 L296.327464,49.413709 L315.387127,80.0419227 L304.008224,80.0419227 L286.939869,50.4567751 L276.793681,50.4567751 L276.793681,80.0419227 L267.690559,80.0419227 L267.690559,12.9063955 L291.301782,12.9063955 Z M369.654942,12.9063955 L369.654942,21.4405727 L335.423409,21.4405727 L335.423409,41.448477 L367.284337,41.448477 L367.284337,49.9826542 L335.423409,49.9826542 L335.423409,71.5077455 L371.361777,71.5077455 L371.361777,80.0419227 L326.320287,80.0419227 L326.320287,12.9063955 L369.654942,12.9063955 Z M427.14678,12.9063955 L427.14678,21.4405727 L394.053137,21.4405727 L394.053137,42.4915431 L424.870999,42.4915431 L424.870999,51.0257203 L394.053137,51.0257203 L394.053137,80.0419227 L384.950015,80.0419227 L384.950015,12.9063955 L427.14678,12.9063955 Z M449.17437,12.9063955 L449.17437,71.5077455 L479.992232,71.5077455 L479.992232,80.0419227 L440.071248,80.0419227 L440.071248,12.9063955 L449.17437,12.9063955 Z M481.537797,12.9063955 L499.838866,42.3967189 L518.70888,12.9063955 L529.80331,12.9063955 L504.390427,51.405017 L504.390427,80.0419227 L495.287305,80.0419227 L495.287305,51.405017 L469.874422,12.9063955 L481.537797,12.9063955 Z M67.6946721,52.7552526 L67.6946721,62.6002526 L84.6542523,72.3921835 L101.511672,62.6582526 L101.511672,52.8142526 L86.3977701,61.5406086 C85.3575842,62.1411602 84.0846429,62.1626085 83.0278317,61.6049534 L82.9113204,61.5406086 L67.6946721,52.7552526 Z M84.8326721,39.2832526 L70.0156721,46.0432526 L84.6542523,54.4950751 L99.4506721,45.9522526 L84.8326721,39.2832526 Z M81.1180626,28.8152813 L14.1917097,28.8152813 L43.2631217,50.5842083 L81.1180626,33.3137311 L81.1180626,28.8152813 Z M155.475417,28.8152813 L88.5490641,28.8152813 L88.5490641,33.3137311 L126.404005,50.5842083 L155.475417,28.8152813 Z M288.741529,20.8716276 L276.793681,20.8716276 L276.793681,42.4915431 L288.741529,42.4915431 C290.511581,42.4915431 292.265828,42.3493068 294.004272,42.0648342 C295.742715,41.7803617 297.29151,41.2588286 298.650657,40.5002351 C300.009804,39.7416415 301.100282,38.6511634 301.922092,37.2288005 C302.743901,35.8064376 303.154806,33.9573659 303.154806,31.6815853 C303.154806,29.4058047 302.743901,27.556733 301.922092,26.1343702 C301.100282,24.7120073 300.009804,23.6215291 298.650657,22.8629356 C297.29151,22.104342 295.742715,21.582809 294.004272,21.2983364 C292.265828,21.0138639 290.511581,20.8716276 288.741529,20.8716276 L288.741529,20.8716276 Z M84.6045123,9.54629128 L67.69613,19.3083504 L67.6956721,21.8422526 L84.6045123,21.8423819 C84.6816694,21.8423819 84.7582411,21.8448883 84.8341504,21.849824 C84.9095633,21.8448662 84.9857987,21.8423819 85.0626144,21.8423819 L101.512895,21.8422526 L101.512895,19.3083504 L84.6045123,9.54629128 Z" id="Combined-Shape"></path>
        </g>
    </g>
</svg>