<?xml version="1.0" encoding="UTF-8"?>
<svg width="186px" height="110px" viewBox="0 0 186 110" version="1.1" xmlns="http://www.w3.org/2000/svg" xmlns:xlink="http://www.w3.org/1999/xlink">
    <!-- Generator: Sketch 63.1 (92452) - https://sketch.com -->
    <title>FF-Logo-SymbolOnly-OptionA</title>
    <desc>Created with Sketch.</desc>
    <g id="Page-1" stroke="none" stroke-width="1" fill="none" fill-rule="evenodd">
        <g id="FF-Logo-SymbolOnly-OptionA" fill="#FFFFFF" fill-rule="nonzero">
            <path d="M106.217316,0.123564181 C108.286092,0.123564181 109.970847,1.76775445 110.03612,3.82067512 L110.038083,3.94433096 L110.037312,11.7335642 L115.067775,14.637964 C117.350545,15.9559226 118.787015,18.353068 118.883368,20.9740852 L118.888541,21.2557262 L118.888312,24.0325642 L181.861093,24.032747 C185.534364,24.032747 187.091522,28.7101303 184.151235,30.9118644 L141.290987,63.0063053 C140.172552,63.8438073 138.686155,64.0040039 137.414953,63.424045 L118.888312,54.9715642 L118.888541,91.5329601 C118.888541,94.1688772 117.530788,96.6114695 115.309096,98.0054219 L115.067775,98.1507223 L96.5380406,108.848869 C94.258181,110.165147 91.4681728,110.212157 89.1518741,108.989899 L88.896507,108.848869 L70.3667729,98.1507223 C68.0840017,96.8327637 66.6475316,94.4356183 66.5511791,91.8146011 L66.5460061,91.5329601 L66.5443119,55.2005642 L48.5216244,63.424045 C47.3210449,63.971784 45.9285159,63.8593225 44.8353028,63.1396068 L44.6455899,63.0063053 L1.78534256,30.9118644 C-1.15494455,28.7101303 0.402213317,24.032747 4.07548456,24.032747 L4.07548456,24.032747 L66.5453119,24.0325642 L66.5460061,21.2557262 C66.5460061,18.6198091 67.9037599,16.1772168 70.1254512,14.7832644 L70.3667729,14.637964 L76.1603119,11.2925642 L76.1606177,3.94433096 C76.1606177,1.83417973 77.8712333,0.123564181 79.9813845,0.123564181 C82.0501602,0.123564181 83.7349147,1.76775445 83.8001882,3.82067512 L83.8021513,3.94433096 L83.8013119,6.88156418 L88.896507,3.93981704 C91.1763665,2.62353956 93.9663747,2.57652965 96.2826735,3.79878731 L96.5380406,3.93981704 L102.396312,7.32256418 L102.39655,3.94433096 C102.39655,1.83417973 104.107165,0.123564181 106.217316,0.123564181 Z M74.1873119,77.5235642 L74.1875397,91.5329601 L92.7172738,102.231107 L111.247008,91.5329601 L111.246312,77.5875642 L94.6824878,87.1509225 C93.542558,87.8090612 92.1475539,87.8325662 90.9894046,87.2214373 L90.861721,87.1509225 L74.1873119,77.5235642 Z M74.1863119,57.9095642 L74.1863119,68.6995642 L92.7717834,79.4297898 L111.245312,68.7635642 L111.245312,57.9745642 L94.6824878,67.537653 C93.542558,68.1957918 92.1475539,68.2192967 90.9894046,67.6081679 L90.861721,67.537653 L74.1863119,57.9095642 Z M92.9683119,43.1455642 L76.7283119,50.5545642 L92.7717834,59.8165204 L108.987312,50.4545642 L92.9683119,43.1455642 Z M88.896507,31.6742806 L15.5525585,31.6742806 L47.4116402,55.5306389 L88.896507,36.6040886 L88.896507,31.6742806 Z M170.384019,31.6742806 L97.04007,31.6742806 L97.04007,36.6040886 L138.524937,55.5306389 L170.384019,31.6742806 Z M92.7172738,10.5575792 L74.1875397,21.2557262 L74.1873119,24.0325642 L92.7172738,24.032747 C92.801911,24.032747 92.8859054,24.035499 92.9691725,24.0409184 C93.0513461,24.0354769 93.1350057,24.032747 93.219303,24.032747 L111.246312,24.0325642 L111.247008,21.2557262 L92.7172738,10.5575792 Z" id="Combined-Shape"></path>
        </g>
    </g>
</svg>